<?xml version="1.0" standalone="no"?>
<!DOCTYPE svg PUBLIC "-//W3C//DTD SVG 1.1//EN" "http://www.w3.org/Graphics/SVG/1.1/DTD/svg11.dtd">
<svg width="238mm" height="30mm" viewBox="-119 -15 238 30" xmlns="http://www.w3.org/2000/svg" version="1.1">
<title>OpenSCAD Model</title>
<path d="
M 103.625,14.9178 L 105.193,14.9178 L 108.26,14.2658 L 111.125,12.9904 L 113.662,11.1472 L 115.76,8.81677
 L 117.328,6.10104 L 118.297,3.11867 L 118.625,-0 L 118.297,-3.11867 L 117.328,-6.10104 L 115.76,-8.81677
 L 113.662,-11.1472 L 111.125,-12.9904 L 108.26,-14.2658 L 105.193,-14.9178 L 103.625,-14.9178 L 103.625,-15
 L -103.625,-15 L -103.625,-14.9178 L -105.193,-14.9178 L -108.26,-14.2658 L -111.125,-12.9904 L -113.662,-11.1472
 L -115.76,-8.81677 L -117.328,-6.10104 L -118.297,-3.11867 L -118.625,-0 L -118.297,3.11867 L -117.328,6.10104
 L -115.76,8.81677 L -113.662,11.1472 L -111.125,12.9904 L -108.26,14.2658 L -105.193,14.9178 L -103.625,14.9178
 L -103.625,15 L 103.625,15 z
M 70.425,-3.75 L 70.425,-11.25 L 73.6,-11.25 L 73.6,-3.75 z
M 47.25,-3.75 L 47.25,-11.25 L 50.425,-11.25 L 50.425,-3.75 z
M -50.425,-3.75 L -50.425,-11.25 L -47.25,-11.25 L -47.25,-3.75 z
M -73.6,-3.75 L -73.6,-11.25 L -70.425,-11.25 L -70.425,-3.75 z
M 70.425,11.25 L 70.425,3.75 L 73.6,3.75 L 73.6,11.25 z
M 47.25,11.25 L 47.25,3.75 L 50.425,3.75 L 50.425,11.25 z
M -50.425,11.25 L -50.425,3.75 L -47.25,3.75 L -47.25,11.25 z
M -73.6,11.25 L -73.6,3.75 L -70.425,3.75 L -70.425,11.25 z
" stroke="black" fill="lightgray" stroke-width="0.5"/>
</svg>
