<?xml version="1.0" standalone="no"?>
<!DOCTYPE svg PUBLIC "-//W3C//DTD SVG 1.1//EN" "http://www.w3.org/Graphics/SVG/1.1/DTD/svg11.dtd">
<svg width="238mm" height="101mm" viewBox="-119 -86 238 101" xmlns="http://www.w3.org/2000/svg" version="1.1">
<title>OpenSCAD Model</title>
<path d="
M 82.1,-55.4274 L 83.6679,-55.4822 L 85.7288,-55.8456 L 87.7191,-56.4922 L 89.6,-57.4096 L 91.3349,-58.5798
 L 92.8901,-59.9801 L 94.2352,-61.5832 L 95.3442,-63.3579 L 96.1954,-65.2697 L 96.7722,-67.2813 L 97.0635,-69.3537
 L 97.0635,-71.4464 L 96.7722,-73.5187 L 96.1954,-75.5303 L 95.3442,-77.4421 L 94.2352,-79.2168 L 92.8901,-80.8199
 L 91.3349,-82.2202 L 89.6,-83.3904 L 87.7191,-84.3078 L 85.7288,-84.9544 L 83.6679,-85.3178 L 82.1,-85.3726
 L 82.1,-85.4 L 0,-85.4 L 0,-81.65 L -3.20999,-81.65 L -3.20999,-74.15 L 0,-74.15
 L 0,-66.65 L -3.20999,-66.65 L -3.20999,-59.15 L 0,-59.15 L 0,-55.4 L 82.1,-55.4
 z
M -29.025,-55.4274 L -27.4571,-55.4822 L -25.3962,-55.8456 L -23.4059,-56.4922 L -21.525,-57.4096 L -19.7901,-58.5798
 L -18.2349,-59.9801 L -16.8897,-61.5832 L -15.7808,-63.3579 L -14.9296,-65.2697 L -14.3528,-67.2813 L -14.0615,-69.3537
 L -14.0615,-71.4464 L -14.3528,-73.5187 L -14.9296,-75.5303 L -15.7808,-77.4421 L -16.8897,-79.2168 L -18.2349,-80.8199
 L -19.7901,-82.2202 L -21.525,-83.3904 L -23.4059,-84.3078 L -25.3962,-84.9544 L -27.4571,-85.3178 L -29.025,-85.3726
 L -29.025,-85.4 L -111.125,-85.4 L -111.125,-81.65 L -114.335,-81.65 L -114.335,-74.15 L -111.125,-74.15
 L -111.125,-66.65 L -114.335,-66.65 L -114.335,-59.15 L -111.125,-59.15 L -111.125,-55.4 L -29.025,-55.4
 z
M 82.1,-20.2274 L 83.6679,-20.2822 L 85.7288,-20.6456 L 87.7191,-21.2922 L 89.6,-22.2096 L 91.3349,-23.3798
 L 92.8901,-24.7801 L 94.2352,-26.3832 L 95.3442,-28.1579 L 96.1954,-30.0697 L 96.7722,-32.0813 L 97.0635,-34.1536
 L 97.0635,-36.2463 L 96.7722,-38.3187 L 96.1954,-40.3303 L 95.3442,-42.2421 L 94.2352,-44.0168 L 92.8901,-45.6199
 L 91.3349,-47.0202 L 89.6,-48.1904 L 87.7191,-49.1078 L 85.7288,-49.7544 L 83.6679,-50.1178 L 82.1,-50.1726
 L 82.1,-50.2 L 0,-50.2 L 0,-46.45 L -3.20999,-46.45 L -3.20999,-38.95 L 0,-38.95
 L 0,-31.45 L -3.20999,-31.45 L -3.20999,-23.95 L 0,-23.95 L 0,-20.2 L 82.1,-20.2
 z
M -29.025,-20.2274 L -27.4571,-20.2822 L -25.3962,-20.6456 L -23.4059,-21.2922 L -21.525,-22.2096 L -19.7901,-23.3798
 L -18.2349,-24.7801 L -16.8897,-26.3832 L -15.7808,-28.1579 L -14.9296,-30.0697 L -14.3528,-32.0813 L -14.0615,-34.1536
 L -14.0615,-36.2463 L -14.3528,-38.3187 L -14.9296,-40.3303 L -15.7808,-42.2421 L -16.8897,-44.0168 L -18.2349,-45.6199
 L -19.7901,-47.0202 L -21.525,-48.1904 L -23.4059,-49.1078 L -25.3962,-49.7544 L -27.4571,-50.1178 L -29.025,-50.1726
 L -29.025,-50.2 L -111.125,-50.2 L -111.125,-46.45 L -114.335,-46.45 L -114.335,-38.95 L -111.125,-38.95
 L -111.125,-31.45 L -114.335,-31.45 L -114.335,-23.95 L -111.125,-23.95 L -111.125,-20.2 L -29.025,-20.2
 z
M 103.625,14.9726 L 104.148,14.9909 L 106.23,14.7721 L 108.26,14.2658 L 110.201,13.4819 L 112.013,12.4356
 L 113.662,11.1472 L 115.116,9.6418 L 116.346,7.94878 L 117.328,6.10104 L 118.044,4.13455 L 118.479,2.08759
 L 118.625,-0 L 118.479,-2.08759 L 118.044,-4.13455 L 117.328,-6.10104 L 116.346,-7.94878 L 115.116,-9.6418
 L 113.662,-11.1472 L 112.013,-12.4356 L 110.201,-13.4819 L 108.26,-14.2658 L 106.23,-14.7721 L 104.148,-14.9909
 L 103.625,-14.9726 L 103.625,-15 L -103.625,-15 L -103.625,-14.9726 L -105.193,-14.9178 L -107.254,-14.5544
 L -109.244,-13.9077 L -111.125,-12.9904 L -112.86,-11.8202 L -114.415,-10.4199 L -115.76,-8.81677 L -116.869,-7.04207
 L -117.72,-5.13029 L -118.297,-3.11867 L -118.588,-1.04634 L -118.588,1.04634 L -118.297,3.11867 L -117.72,5.13029
 L -116.869,7.04207 L -115.76,8.81677 L -114.415,10.4199 L -112.86,11.8202 L -111.125,12.9904 L -109.244,13.9077
 L -107.254,14.5544 L -105.193,14.9178 L -103.625,14.9726 L -103.625,15 L 103.625,15 z
M -74.33,-11.25 L -71.29,-11.25 L -71.29,-3.75 L -74.33,-3.75 z
M 71.29,11.25 L 71.29,3.75 L 74.33,3.75 L 74.33,11.25 z
M -74.33,11.25 L -74.33,3.75 L -71.29,3.75 L -71.29,11.25 z
M 47.25,11.25 L 47.25,3.75 L 50.29,3.75 L 50.29,11.25 z
M -50.29,11.25 L -50.29,3.75 L -47.25,3.75 L -47.25,11.25 z
M 74.33,-11.25 L 74.33,-3.75 L 71.29,-3.75 L 71.29,-11.25 z
M 47.25,-11.25 L 50.29,-11.25 L 50.29,-3.75 L 47.25,-3.75 z
M -50.29,-11.25 L -47.25,-11.25 L -47.25,-3.75 L -50.29,-3.75 z
" stroke="black" fill="lightgray" stroke-width="0.5"/>
</svg>
